<svg width="41" height="32" viewBox="0 0 41 32" fill="none" xmlns="http://www.w3.org/2000/svg">
<g clip-path="url(#clip0_108_1452)">
<path fill-rule="evenodd" clip-rule="evenodd" d="M36.883 28.1179V21.8452C35.4731 21.9592 31.8073 23.67 26.9009 22.3014C23.9119 21.446 21.5432 19.6212 21.5432 15.8575C21.5996 9.86987 27.4648 8.50127 32.2021 9.07152C33.2173 9.18557 36.4882 10.098 36.883 10.098V4.11033C35.0783 2.57065 29.1003 0.85989 26.5061 0.460714C22.1636 -0.223589 17.7083 -0.0525129 13.6478 1.03097C6.76745 2.85577 -8.41307e-05 7.70291 -0.0564803 15.9145C-0.112876 29.5436 14.7193 33.4213 26.0549 31.7105C29.3259 31.1973 34.4016 29.7717 36.8266 28.232L36.883 28.1179ZM9.53087 25.3237C9.58726 22.8716 9.53087 20.3625 9.58726 17.8534C9.58726 16.0856 9.24888 11.9798 10.0948 10.8393C11.3355 9.12854 13.9862 9.24259 14.6065 11.3525C15.3961 13.8616 13.1402 15.2302 10.828 14.66L10.7716 17.9674C14.5501 19.222 18.1031 15.6864 18.1595 12.2649C18.1595 6.10621 9.98204 3.88223 6.99304 9.12854C5.97791 10.8963 6.25989 12.9492 6.25989 15.1732C6.25989 17.4542 6.25989 19.6782 6.25989 21.9592C6.25989 24.6394 8.34655 25.5518 9.53087 25.2667V25.3237ZM32.2021 15.6864H34.458L34.5144 19.3931L39.0825 19.4501V15.7435L41.0563 15.6864V12.6071L32.3149 12.5501V15.7435L32.2021 15.6864Z" fill="white"/>
</g>
<defs>
<clipPath id="clip0_108_1452">
<rect width="41" height="32" fill="white"/>
</clipPath>
</defs>
</svg>
