<svg width="83" height="128" viewBox="0 0 83 128" fill="none" xmlns="http://www.w3.org/2000/svg">
<path d="M22.4688 55V52.2656L24.6406 51.9844L29.4844 46.5312L24.9062 41.1094L22.8594 40.8438V38.0938H31.2344V40.7188L29.9219 40.9219L32.375 44.1406L34.8281 40.9219L33.375 40.7188V38.0938H41.4531V40.8438L39.5625 41.1094L35.2344 46.3438L40.0625 51.9844L42.1406 52.2656V55H33.4688V52.3906L34.9375 52.1875L32.3281 48.9531L29.7812 52.2031L31.2188 52.3906V55H22.4688ZM52.1719 55.3281C50.5781 55.3281 49.1667 54.9635 47.9375 54.2344C46.7188 53.4948 45.7656 52.4375 45.0781 51.0625C44.3906 49.6771 44.0469 48.026 44.0469 46.1094V42.1094C44.0469 39.9635 44.4323 38.1354 45.2031 36.625C45.9844 35.1042 47.0625 33.9427 48.4375 33.1406C49.8125 32.3281 51.3906 31.9219 53.1719 31.9219C54.026 31.9219 54.8125 32.0052 55.5312 32.1719C56.2604 32.3281 56.9896 32.5625 57.7188 32.875L56.9219 36.2031C56.3594 36.0052 55.776 35.8385 55.1719 35.7031C54.5677 35.5677 53.9427 35.5 53.2969 35.5C51.7969 35.5 50.6562 35.9948 49.875 36.9844C49.1042 37.974 48.7135 39.4323 48.7031 41.3594L48.75 41.4375C49.2604 40.9062 49.9062 40.4896 50.6875 40.1875C51.4792 39.8854 52.349 39.7344 53.2969 39.7344C54.6615 39.7344 55.8333 40.0625 56.8125 40.7188C57.7917 41.375 58.5417 42.2812 59.0625 43.4375C59.5833 44.5938 59.8438 45.9167 59.8438 47.4062C59.8438 48.9375 59.5156 50.3021 58.8594 51.5C58.2135 52.6875 57.3125 53.625 56.1562 54.3125C55.0104 54.9896 53.6823 55.3281 52.1719 55.3281ZM52.0781 51.8281C52.7344 51.8281 53.3021 51.6302 53.7812 51.2344C54.2604 50.8385 54.6302 50.3021 54.8906 49.625C55.151 48.9375 55.2812 48.1771 55.2812 47.3438C55.2812 46.125 54.9792 45.1302 54.375 44.3594C53.7812 43.5781 52.9375 43.1875 51.8438 43.1875C51.375 43.1875 50.9323 43.25 50.5156 43.375C50.099 43.5 49.7292 43.6771 49.4062 43.9062C49.0833 44.125 48.8125 44.3906 48.5938 44.7031V46.2188C48.5938 48.0208 48.9167 49.4062 49.5625 50.375C50.2083 51.3438 51.0469 51.8281 52.0781 51.8281Z" fill="white"/>
<path d="M17.8516 91.1641C16.7474 91.1641 15.7865 90.9349 14.9688 90.4766C14.151 90.013 13.5182 89.3594 13.0703 88.5156C12.6276 87.6667 12.4062 86.6641 12.4062 85.5078V85.125C12.4062 84.0208 12.6198 83.0443 13.0469 82.1953C13.4792 81.3411 14.0938 80.6719 14.8906 80.1875C15.6875 79.7031 16.6354 79.4609 17.7344 79.4609C18.5052 79.4609 19.2266 79.5703 19.8984 79.7891C20.5755 80.0078 21.1797 80.3411 21.7109 80.7891V83.5391H20.0156L19.7812 81.8125C19.6094 81.6875 19.4219 81.5807 19.2188 81.4922C19.0156 81.4036 18.7943 81.3359 18.5547 81.2891C18.3203 81.2422 18.0651 81.2188 17.7891 81.2188C17.1432 81.2188 16.5885 81.3776 16.125 81.6953C15.6615 82.013 15.3047 82.4635 15.0547 83.0469C14.8099 83.625 14.6875 84.3125 14.6875 85.1094V85.5078C14.6875 86.3047 14.8177 86.9948 15.0781 87.5781C15.3385 88.1615 15.7083 88.6146 16.1875 88.9375C16.6667 89.2552 17.2344 89.4141 17.8906 89.4141C18.2188 89.4141 18.5469 89.3776 18.875 89.3047C19.2083 89.2266 19.5104 89.1276 19.7812 89.0078L20.0156 87.4062H21.7109V90.125C21.2682 90.4167 20.7161 90.6641 20.0547 90.8672C19.3932 91.0651 18.6589 91.1641 17.8516 91.1641ZM26.1719 91V89.6328L27.3906 89.3984V88.2812H22.75L22.6406 87.1641L27.3672 79.625H29.6641V86.7656H30.9531V88.2812H29.6641V89.3984L30.875 89.6328V91H26.1719ZM24.7656 86.7656H27.3906V82.6641L27.3438 82.6484L27.1562 82.9766L24.7656 86.7656ZM35.9922 91.1641C34.8047 91.1641 33.8646 90.776 33.1719 90C32.4792 89.2188 32.1328 88.0755 32.1328 86.5703V84.0625C32.1328 82.5625 32.4766 81.4219 33.1641 80.6406C33.8568 79.8542 34.7943 79.4609 35.9766 79.4609C37.1536 79.4609 38.0885 79.8542 38.7812 80.6406C39.4792 81.4219 39.8281 82.5625 39.8281 84.0625V86.5703C39.8281 88.0755 39.4818 89.2188 38.7891 90C38.1016 90.776 37.1693 91.1641 35.9922 91.1641ZM35.9922 89.4141C36.5026 89.4141 36.8906 89.2057 37.1562 88.7891C37.4219 88.3724 37.5547 87.7057 37.5547 86.7891V83.8281C37.5547 82.9219 37.4193 82.2604 37.1484 81.8438C36.8776 81.4271 36.487 81.2188 35.9766 81.2188C35.4609 81.2188 35.0703 81.4271 34.8047 81.8438C34.5391 82.2604 34.4062 82.9219 34.4062 83.8281V86.7891C34.4062 87.7057 34.5391 88.3724 34.8047 88.7891C35.0755 89.2057 35.4714 89.4141 35.9922 89.4141ZM40.9531 91V89.6328L42.1641 89.3984V81.2344L40.9531 81V79.625H45.6641V81L44.4453 81.2344V84.5156H49.0859V81.2344L47.8672 81V79.625H49.0859H51.3594H52.5781V81L51.3594 81.2344V89.3984L52.5781 89.6328V91H47.8672V89.6328L49.0859 89.3984V86.2734H44.4453V89.3984L45.6641 89.6328V91H40.9531ZM57.2969 91.1641C56.6042 91.1641 55.9688 91.0365 55.3906 90.7812C54.8177 90.5208 54.362 90.151 54.0234 89.6719C53.6849 89.1927 53.5234 88.6198 53.5391 87.9531L53.5547 87.9141L55.7422 87.8047C55.7422 88.3099 55.8854 88.7057 56.1719 88.9922C56.4583 89.2734 56.8333 89.4141 57.2969 89.4141C57.8281 89.4141 58.2214 89.224 58.4766 88.8438C58.7318 88.4635 58.8594 87.9714 58.8594 87.3672C58.8594 86.7109 58.724 86.1849 58.4531 85.7891C58.1823 85.3932 57.7786 85.1953 57.2422 85.1953C56.8099 85.1953 56.4766 85.276 56.2422 85.4375C56.013 85.599 55.849 85.8177 55.75 86.0938L53.7344 85.9609L54.3906 79.625H60.9375V82.2188H59.5312L59.3281 81.4531H56.2656L55.9453 84.0781C56.0859 83.974 56.2474 83.8828 56.4297 83.8047C56.612 83.7214 56.8073 83.6562 57.0156 83.6094C57.2292 83.5573 57.4557 83.5312 57.6953 83.5312C58.4245 83.5208 59.0443 83.6667 59.5547 83.9688C60.0703 84.2708 60.4609 84.7083 60.7266 85.2812C60.9974 85.8542 61.1328 86.5443 61.1328 87.3516C61.1328 88.0807 60.9844 88.7344 60.6875 89.3125C60.3958 89.8854 59.9635 90.3385 59.3906 90.6719C58.8229 91 58.125 91.1641 57.2969 91.1641ZM66.3203 91.1641C65.5234 91.1641 64.8177 90.9818 64.2031 90.6172C63.5938 90.2474 63.1172 89.7188 62.7734 89.0312C62.4297 88.3385 62.2578 87.513 62.2578 86.5547V84.5547C62.2578 83.4818 62.4505 82.5677 62.8359 81.8125C63.2266 81.0521 63.7656 80.4714 64.4531 80.0703C65.1406 79.6641 65.9297 79.4609 66.8203 79.4609C67.2474 79.4609 67.6406 79.5026 68 79.5859C68.3646 79.6641 68.7292 79.7812 69.0938 79.9375L68.6953 81.6016C68.4141 81.5026 68.1224 81.4193 67.8203 81.3516C67.5182 81.2839 67.2057 81.25 66.8828 81.25C66.1328 81.25 65.5625 81.4974 65.1719 81.9922C64.7865 82.487 64.5911 83.2161 64.5859 84.1797L64.6094 84.2188C64.8646 83.9531 65.1875 83.7448 65.5781 83.5938C65.974 83.4427 66.4089 83.3672 66.8828 83.3672C67.5651 83.3672 68.151 83.5312 68.6406 83.8594C69.1302 84.1875 69.5052 84.6406 69.7656 85.2188C70.026 85.7969 70.1562 86.4583 70.1562 87.2031C70.1562 87.9688 69.9922 88.651 69.6641 89.25C69.3411 89.8438 68.8906 90.3125 68.3125 90.6562C67.7396 90.9948 67.0755 91.1641 66.3203 91.1641ZM66.2734 89.4141C66.6016 89.4141 66.8854 89.3151 67.125 89.1172C67.3646 88.9193 67.5495 88.651 67.6797 88.3125C67.8099 87.9688 67.875 87.5885 67.875 87.1719C67.875 86.5625 67.724 86.0651 67.4219 85.6797C67.125 85.2891 66.7031 85.0938 66.1562 85.0938C65.9219 85.0938 65.7005 85.125 65.4922 85.1875C65.2839 85.25 65.099 85.3385 64.9375 85.4531C64.776 85.5625 64.6406 85.6953 64.5312 85.8516V86.6094C64.5312 87.5104 64.6927 88.2031 65.0156 88.6875C65.3385 89.1719 65.7578 89.4141 66.2734 89.4141Z" fill="white"/>
<rect x="2" y="2" width="79" height="124" rx="39.5" stroke="white" stroke-width="4"/>
</svg>
