<svg width="83" height="128" viewBox="0 0 83 128" fill="none" xmlns="http://www.w3.org/2000/svg">
<path d="M13.4688 55V52.2656L15.6406 51.9844L20.4844 46.5312L15.9062 41.1094L13.8594 40.8438V38.0938H22.2344V40.7188L20.9219 40.9219L23.375 44.1406L25.8281 40.9219L24.375 40.7188V38.0938H32.4531V40.8438L30.5625 41.1094L26.2344 46.3438L31.0625 51.9844L33.1406 52.2656V55H24.4688V52.3906L25.9375 52.1875L23.3281 48.9531L20.7812 52.2031L22.2188 52.3906V55H13.4688ZM42.2812 55.3281C40.8333 55.3281 39.5156 55.0729 38.3281 54.5625C37.1406 54.0521 36.1979 53.3125 35.5 52.3438C34.8125 51.3646 34.4844 50.1823 34.5156 48.7969L34.5469 48.7031H38.9688C38.9688 49.3073 39.1042 49.8438 39.375 50.3125C39.6458 50.7812 40.026 51.151 40.5156 51.4219C41.0156 51.6927 41.6042 51.8281 42.2812 51.8281C43.3333 51.8281 44.1615 51.5312 44.7656 50.9375C45.3802 50.3438 45.6875 49.526 45.6875 48.4844C45.6875 47.4219 45.3854 46.5938 44.7812 46C44.1771 45.4062 43.2656 45.1094 42.0469 45.1094H39.5781V41.6875H42.1406C42.8698 41.6875 43.4688 41.5625 43.9375 41.3125C44.4062 41.0521 44.7552 40.6875 44.9844 40.2188C45.2135 39.75 45.3281 39.1979 45.3281 38.5625C45.3281 37.6042 45.0677 36.8438 44.5469 36.2812C44.026 35.7188 43.2708 35.4375 42.2812 35.4375C41.6875 35.4375 41.1615 35.5573 40.7031 35.7969C40.2448 36.026 39.8854 36.3542 39.625 36.7812C39.375 37.2083 39.25 37.7031 39.25 38.2656H34.8281L34.7969 38.1719C34.7656 36.9635 35.0625 35.8906 35.6875 34.9531C36.3125 34.0052 37.1927 33.2656 38.3281 32.7344C39.474 32.1927 40.7812 31.9219 42.25 31.9219C44.5521 31.9219 46.401 32.4844 47.7969 33.6094C49.1927 34.724 49.8906 36.3073 49.8906 38.3594C49.8906 39.4219 49.5938 40.3802 49 41.2344C48.4167 42.0885 47.5417 42.7865 46.375 43.3281C47.6354 43.776 48.5938 44.4635 49.25 45.3906C49.9167 46.3177 50.25 47.3958 50.25 48.625C50.25 50.0104 49.9062 51.2031 49.2188 52.2031C48.5312 53.2031 47.5833 53.974 46.375 54.5156C45.1771 55.0573 43.8125 55.3281 42.2812 55.3281ZM60.2344 55.3281C57.8594 55.3281 55.9792 54.5521 54.5938 53C53.2083 51.4375 52.5156 49.151 52.5156 46.1406V41.125C52.5156 38.125 53.2031 35.8438 54.5781 34.2812C55.9635 32.7083 57.8385 31.9219 60.2031 31.9219C62.5573 31.9219 64.4271 32.7083 65.8125 34.2812C67.2083 35.8438 67.9062 38.125 67.9062 41.125V46.1406C67.9062 49.151 67.2135 51.4375 65.8281 53C64.4531 54.5521 62.5885 55.3281 60.2344 55.3281ZM60.2344 51.8281C61.2552 51.8281 62.0312 51.4115 62.5625 50.5781C63.0938 49.7448 63.3594 48.4115 63.3594 46.5781V40.6562C63.3594 38.8438 63.0885 37.5208 62.5469 36.6875C62.0052 35.8542 61.224 35.4375 60.2031 35.4375C59.1719 35.4375 58.3906 35.8542 57.8594 36.6875C57.3281 37.5208 57.0625 38.8438 57.0625 40.6562V46.5781C57.0625 48.4115 57.3281 49.7448 57.8594 50.5781C58.401 51.4115 59.1927 51.8281 60.2344 51.8281Z" fill="white"/>
<path d="M31.875 97V94.2656L34.2969 93.7969V77.4688L31.875 77V74.25H34.2969H41.9844C44.6615 74.25 46.75 74.7708 48.25 75.8125C49.75 76.8542 50.5 78.4115 50.5 80.4844C50.5 81.5365 50.2188 82.4792 49.6562 83.3125C49.1042 84.1354 48.2969 84.7552 47.2344 85.1719C48.1406 85.3698 48.8958 85.7188 49.5 86.2188C50.1146 86.7188 50.5729 87.3281 50.875 88.0469C51.1771 88.7552 51.3281 89.5312 51.3281 90.375C51.3281 92.5521 50.6094 94.2031 49.1719 95.3281C47.7344 96.4427 45.6979 97 43.0625 97H31.875ZM38.8594 93.5H43.0625C44.2708 93.5 45.1927 93.2396 45.8281 92.7188C46.4635 92.1875 46.7812 91.4062 46.7812 90.375C46.7812 89.625 46.6615 88.9948 46.4219 88.4844C46.1823 87.974 45.8125 87.5885 45.3125 87.3281C44.8229 87.0677 44.1875 86.9375 43.4062 86.9375H38.8594V93.5ZM38.8594 83.7812H42.1406C43.3594 83.7812 44.2969 83.5312 44.9531 83.0312C45.6094 82.5312 45.9375 81.8021 45.9375 80.8438C45.9375 79.7917 45.6042 79.0156 44.9375 78.5156C44.2812 78.0156 43.2969 77.7656 41.9844 77.7656H38.8594V83.7812Z" fill="white"/>
<rect x="2" y="2" width="79" height="124" rx="39.5" stroke="white" stroke-width="4"/>
</svg>
