<svg width="83" height="128" viewBox="0 0 83 128" fill="none" xmlns="http://www.w3.org/2000/svg">
<path d="M22.4688 55V52.2656L24.6406 51.9844L29.4844 46.5312L24.9062 41.1094L22.8594 40.8438V38.0938H31.2344V40.7188L29.9219 40.9219L32.375 44.1406L34.8281 40.9219L33.375 40.7188V38.0938H41.4531V40.8438L39.5625 41.1094L35.2344 46.3438L40.0625 51.9844L42.1406 52.2656V55H33.4688V52.3906L34.9375 52.1875L32.3281 48.9531L29.7812 52.2031L31.2188 52.3906V55H22.4688ZM51.1875 55.3281C49.8021 55.3281 48.5312 55.0729 47.375 54.5625C46.2292 54.0417 45.3177 53.3021 44.6406 52.3438C43.9635 51.3854 43.6406 50.2396 43.6719 48.9062L43.7031 48.8281L48.0781 48.6094C48.0781 49.6198 48.3646 50.4115 48.9375 50.9844C49.5104 51.5469 50.2604 51.8281 51.1875 51.8281C52.25 51.8281 53.0365 51.4479 53.5469 50.6875C54.0573 49.9271 54.3125 48.9427 54.3125 47.7344C54.3125 46.4219 54.0417 45.3698 53.5 44.5781C52.9583 43.7865 52.151 43.3906 51.0781 43.3906C50.2135 43.3906 49.5469 43.5521 49.0781 43.875C48.6198 44.1979 48.2917 44.6354 48.0938 45.1875L44.0625 44.9219L45.375 32.25H58.4688V37.4375H55.6562L55.25 35.9062H49.125L48.4844 41.1562C48.7656 40.9479 49.0885 40.7656 49.4531 40.6094C49.8177 40.4427 50.2083 40.3125 50.625 40.2188C51.0521 40.1146 51.5052 40.0625 51.9844 40.0625C53.4427 40.0417 54.6823 40.3333 55.7031 40.9375C56.7344 41.5417 57.5156 42.4167 58.0469 43.5625C58.5885 44.7083 58.8594 46.0885 58.8594 47.7031C58.8594 49.1615 58.5625 50.4688 57.9688 51.625C57.3854 52.7708 56.5208 53.6771 55.375 54.3438C54.2396 55 52.8438 55.3281 51.1875 55.3281Z" fill="white"/>
<path d="M24.4375 97V94.2656L26.8594 93.7969V77.4688L24.4375 77V74.25H42.5469V80.4844H39.0469L38.8438 77.7656H31.4219V84.0312H39.3906V87.5469H31.4219V93.7969L33.8594 94.2656V97H24.4375ZM51.6719 97.3281C50.0573 97.3281 48.6458 96.974 47.4375 96.2656C46.2292 95.5469 45.2917 94.5625 44.625 93.3125C43.9688 92.0625 43.6406 90.6354 43.6406 89.0312V88.4062C43.6406 86.7292 43.9531 85.2448 44.5781 83.9531C45.2031 82.651 46.0833 81.6302 47.2188 80.8906C48.3646 80.1406 49.7135 79.7708 51.2656 79.7812C52.7969 79.7812 54.0833 80.0833 55.125 80.6875C56.1667 81.2917 56.9583 82.1615 57.5 83.2969C58.0417 84.4323 58.3125 85.8073 58.3125 87.4219V89.9062H48.375L48.3438 90C48.4062 90.7396 48.5885 91.401 48.8906 91.9844C49.2031 92.5573 49.6406 93.0104 50.2031 93.3438C50.7656 93.6667 51.4479 93.8281 52.25 93.8281C53.0833 93.8281 53.8594 93.724 54.5781 93.5156C55.3073 93.2969 56.0156 92.9792 56.7031 92.5625L57.9375 95.375C57.2396 95.9375 56.3594 96.4062 55.2969 96.7812C54.2448 97.1458 53.0365 97.3281 51.6719 97.3281ZM48.4062 86.8906H54.0469V86.4844C54.0469 85.7969 53.9531 85.2083 53.7656 84.7188C53.5885 84.2188 53.2969 83.8333 52.8906 83.5625C52.4948 83.2917 51.9792 83.1562 51.3438 83.1562C50.7396 83.1562 50.2292 83.3177 49.8125 83.6406C49.3958 83.9531 49.0677 84.3854 48.8281 84.9375C48.599 85.4896 48.4427 86.1146 48.3594 86.8125L48.4062 86.8906Z" fill="white"/>
<rect x="2" y="2" width="79" height="124" rx="39.5" stroke="white" stroke-width="4"/>
</svg>
