<svg width="83" height="128" viewBox="0 0 83 128" fill="none" xmlns="http://www.w3.org/2000/svg">
<path d="M22.7344 55V52.2656L24.9062 51.9844L29.75 46.5312L25.1719 41.1094L23.125 40.8438V38.0938H31.5V40.7188L30.1875 40.9219L32.6406 44.1406L35.0938 40.9219L33.6406 40.7188V38.0938H41.7188V40.8438L39.8281 41.1094L35.5 46.3438L40.3281 51.9844L42.4062 52.2656V55H33.7344V52.3906L35.2031 52.1875L32.5938 48.9531L30.0469 52.2031L31.4844 52.3906V55H22.7344ZM50.7188 55.3281C49.9271 55.3281 49.1094 55.2448 48.2656 55.0781C47.4323 54.9219 46.6615 54.6875 45.9531 54.375L46.4688 51.0781C47.125 51.3177 47.7969 51.5052 48.4844 51.6406C49.1823 51.7656 49.8646 51.8281 50.5312 51.8281C51.8542 51.8281 52.8958 51.375 53.6562 50.4688C54.4167 49.5625 54.8073 48.151 54.8281 46.2344L54.7969 45.8906C54.2865 46.5469 53.6719 47.0469 52.9531 47.3906C52.2448 47.724 51.4635 47.8906 50.6094 47.8906C49.2656 47.8906 48.0833 47.5781 47.0625 46.9531C46.0521 46.3177 45.2656 45.4167 44.7031 44.25C44.151 43.0833 43.875 41.6823 43.875 40.0469C43.875 38.5156 44.2031 37.1354 44.8594 35.9062C45.526 34.6771 46.4323 33.7083 47.5781 33C48.7344 32.2812 50.0469 31.9219 51.5156 31.9219C53.0677 31.9219 54.4323 32.2812 55.6094 33C56.7865 33.7188 57.7031 34.7604 58.3594 36.125C59.0156 37.4896 59.3438 39.1354 59.3438 41.0625V46C59.3438 47.9583 58.974 49.6354 58.2344 51.0312C57.5052 52.4271 56.4896 53.4948 55.1875 54.2344C53.8958 54.9635 52.4062 55.3281 50.7188 55.3281ZM51.5938 44.5469C52.2917 44.5469 52.9167 44.4062 53.4688 44.125C54.0208 43.8333 54.4635 43.4479 54.7969 42.9688V40.5312C54.7969 38.8542 54.5052 37.5885 53.9219 36.7344C53.3385 35.8698 52.5469 35.4375 51.5469 35.4375C50.9323 35.4375 50.3906 35.6458 49.9219 36.0625C49.4635 36.4688 49.099 37.026 48.8281 37.7344C48.5677 38.4323 48.4375 39.2031 48.4375 40.0469C48.4375 40.9635 48.5521 41.7604 48.7812 42.4375C49.0208 43.1146 49.375 43.6354 49.8438 44C50.3125 44.3646 50.8958 44.5469 51.5938 44.5469Z" fill="white"/>
<path d="M22.9531 97V94.2656L25.375 93.7969V77.4688L22.9531 77V74.25H25.375H33.0625C35.7396 74.25 37.8281 74.7708 39.3281 75.8125C40.8281 76.8542 41.5781 78.4115 41.5781 80.4844C41.5781 81.5365 41.2969 82.4792 40.7344 83.3125C40.1823 84.1354 39.375 84.7552 38.3125 85.1719C39.2188 85.3698 39.974 85.7188 40.5781 86.2188C41.1927 86.7188 41.651 87.3281 41.9531 88.0469C42.2552 88.7552 42.4062 89.5312 42.4062 90.375C42.4062 92.5521 41.6875 94.2031 40.25 95.3281C38.8125 96.4427 36.776 97 34.1406 97H22.9531ZM29.9375 93.5H34.1406C35.349 93.5 36.2708 93.2396 36.9062 92.7188C37.5417 92.1875 37.8594 91.4062 37.8594 90.375C37.8594 89.625 37.7396 88.9948 37.5 88.4844C37.2604 87.974 36.8906 87.5885 36.3906 87.3281C35.901 87.0677 35.2656 86.9375 34.4844 86.9375H29.9375V93.5ZM29.9375 83.7812H33.2188C34.4375 83.7812 35.375 83.5312 36.0312 83.0312C36.6875 82.5312 37.0156 81.8021 37.0156 80.8438C37.0156 79.7917 36.6823 79.0156 36.0156 78.5156C35.3594 78.0156 34.375 77.7656 33.0625 77.7656H29.9375V83.7812ZM50.9062 97.3281C50.1146 97.3281 49.2969 97.2448 48.4531 97.0781C47.6198 96.9219 46.849 96.6875 46.1406 96.375L46.6562 93.0781C47.3125 93.3177 47.9844 93.5052 48.6719 93.6406C49.3698 93.7656 50.0521 93.8281 50.7188 93.8281C52.0417 93.8281 53.0833 93.375 53.8438 92.4688C54.6042 91.5625 54.9948 90.151 55.0156 88.2344L54.9844 87.8906C54.474 88.5469 53.8594 89.0469 53.1406 89.3906C52.4323 89.724 51.651 89.8906 50.7969 89.8906C49.4531 89.8906 48.2708 89.5781 47.25 88.9531C46.2396 88.3177 45.4531 87.4167 44.8906 86.25C44.3385 85.0833 44.0625 83.6823 44.0625 82.0469C44.0625 80.5156 44.3906 79.1354 45.0469 77.9062C45.7135 76.6771 46.6198 75.7083 47.7656 75C48.9219 74.2812 50.2344 73.9219 51.7031 73.9219C53.2552 73.9219 54.6198 74.2812 55.7969 75C56.974 75.7188 57.8906 76.7604 58.5469 78.125C59.2031 79.4896 59.5312 81.1354 59.5312 83.0625V88C59.5312 89.9583 59.1615 91.6354 58.4219 93.0312C57.6927 94.4271 56.6771 95.4948 55.375 96.2344C54.0833 96.9635 52.5938 97.3281 50.9062 97.3281ZM51.7812 86.5469C52.4792 86.5469 53.1042 86.4062 53.6562 86.125C54.2083 85.8333 54.651 85.4479 54.9844 84.9688V82.5312C54.9844 80.8542 54.6927 79.5885 54.1094 78.7344C53.526 77.8698 52.7344 77.4375 51.7344 77.4375C51.1198 77.4375 50.5781 77.6458 50.1094 78.0625C49.651 78.4688 49.2865 79.026 49.0156 79.7344C48.7552 80.4323 48.625 81.2031 48.625 82.0469C48.625 82.9635 48.7396 83.7604 48.9688 84.4375C49.2083 85.1146 49.5625 85.6354 50.0312 86C50.5 86.3646 51.0833 86.5469 51.7812 86.5469Z" fill="white"/>
<rect x="2" y="2" width="79" height="124" rx="39.5" stroke="white" stroke-width="4"/>
</svg>
