<svg width="83" height="128" viewBox="0 0 83 128" fill="none" xmlns="http://www.w3.org/2000/svg">
<path d="M23 55V52.2656L25.1719 51.9844L30.0156 46.5312L25.4375 41.1094L23.3906 40.8438V38.0938H31.7656V40.7188L30.4531 40.9219L32.9062 44.1406L35.3594 40.9219L33.9062 40.7188V38.0938H41.9844V40.8438L40.0938 41.1094L35.7656 46.3438L40.5938 51.9844L42.6719 52.2656V55H34V52.3906L35.4688 52.1875L32.8594 48.9531L30.3125 52.2031L31.75 52.3906V55H23ZM48.3125 55L48.5312 52.6875C48.7708 50.4583 49.1875 48.3542 49.7812 46.375C50.375 44.3854 51.1562 42.5104 52.125 40.75C53.0938 38.9896 54.2552 37.3281 55.6094 35.7656H47.5938L47.4219 38.0156H43.9219V32.25H60V35.7656C58.7812 37.1927 57.7708 38.5573 56.9688 39.8594C56.1667 41.151 55.5156 42.4531 55.0156 43.7656C54.5156 45.0677 54.1198 46.4427 53.8281 47.8906C53.5365 49.3385 53.2917 50.9375 53.0938 52.6875L52.875 55H48.3125Z" fill="white"/>
<path d="M42.875 97.3281C40.6667 97.3281 38.7448 96.8698 37.1094 95.9531C35.474 95.026 34.2083 93.7188 33.3125 92.0312C32.4271 90.3333 31.9844 88.3281 31.9844 86.0156V85.25C31.9844 83.0417 32.4115 81.0885 33.2656 79.3906C34.1302 77.6823 35.3594 76.3438 36.9531 75.375C38.5469 74.4062 40.4427 73.9219 42.6406 73.9219C44.1823 73.9219 45.625 74.1406 46.9688 74.5781C48.3229 75.0156 49.5312 75.6823 50.5938 76.5781V82.0781H47.2031L46.7344 78.625C46.3906 78.375 46.0156 78.1615 45.6094 77.9844C45.2031 77.8073 44.7604 77.6719 44.2812 77.5781C43.8125 77.4844 43.3021 77.4375 42.75 77.4375C41.4583 77.4375 40.349 77.7552 39.4219 78.3906C38.4948 79.026 37.7812 79.9271 37.2812 81.0938C36.7917 82.25 36.5469 83.625 36.5469 85.2188V86.0156C36.5469 87.6094 36.8073 88.9896 37.3281 90.1562C37.849 91.3229 38.5885 92.2292 39.5469 92.875C40.5052 93.5104 41.6406 93.8281 42.9531 93.8281C43.6094 93.8281 44.2656 93.7552 44.9219 93.6094C45.5885 93.4531 46.1927 93.2552 46.7344 93.0156L47.2031 89.8125H50.5938V95.25C49.7083 95.8333 48.6042 96.3281 47.2812 96.7344C45.9583 97.1302 44.4896 97.3281 42.875 97.3281Z" fill="white"/>
<rect x="2" y="2" width="79" height="124" rx="39.5" stroke="white" stroke-width="4"/>
</svg>
