<svg width="83" height="128" viewBox="0 0 83 128" fill="none" xmlns="http://www.w3.org/2000/svg">
<path d="M17.4688 55V52.2656L19.6406 51.9844L24.4844 46.5312L19.9062 41.1094L17.8594 40.8438V38.0938H26.2344V40.7188L24.9219 40.9219L27.375 44.1406L29.8281 40.9219L28.375 40.7188V38.0938H36.4531V40.8438L34.5625 41.1094L30.2344 46.3438L35.0625 51.9844L37.1406 52.2656V55H28.4688V52.3906L29.9375 52.1875L27.3281 48.9531L24.7812 52.2031L26.2188 52.3906V55H17.4688ZM38.6406 55V52.2656L42.4844 51.7969V36.3906H38.5938V33.7812L47.0312 32.25V51.7969L50.875 52.2656V55H38.6406ZM52.7969 55V52.2656L56.6406 51.7969V36.3906H52.75V33.7812L61.1875 32.25V51.7969L65.0312 52.2656V55H52.7969Z" fill="white"/>
<path d="M33.7031 97.3281C31.4948 97.3281 29.5729 96.8698 27.9375 95.9531C26.3021 95.026 25.0365 93.7188 24.1406 92.0312C23.2552 90.3333 22.8125 88.3281 22.8125 86.0156V85.25C22.8125 83.0417 23.2396 81.0885 24.0938 79.3906C24.9583 77.6823 26.1875 76.3438 27.7812 75.375C29.375 74.4062 31.2708 73.9219 33.4688 73.9219C35.0104 73.9219 36.4531 74.1406 37.7969 74.5781C39.151 75.0156 40.3594 75.6823 41.4219 76.5781V82.0781H38.0312L37.5625 78.625C37.2188 78.375 36.8438 78.1615 36.4375 77.9844C36.0312 77.8073 35.5885 77.6719 35.1094 77.5781C34.6406 77.4844 34.1302 77.4375 33.5781 77.4375C32.2865 77.4375 31.1771 77.7552 30.25 78.3906C29.3229 79.026 28.6094 79.9271 28.1094 81.0938C27.6198 82.25 27.375 83.625 27.375 85.2188V86.0156C27.375 87.6094 27.6354 88.9896 28.1562 90.1562C28.6771 91.3229 29.4167 92.2292 30.375 92.875C31.3333 93.5104 32.4688 93.8281 33.7812 93.8281C34.4375 93.8281 35.0938 93.7552 35.75 93.6094C36.4167 93.4531 37.0208 93.2552 37.5625 93.0156L38.0312 89.8125H41.4219V95.25C40.5365 95.8333 39.4323 96.3281 38.1094 96.7344C36.7865 97.1302 35.3177 97.3281 33.7031 97.3281ZM49.2969 97.3281C47.6198 97.3281 46.2865 96.8802 45.2969 95.9844C44.3073 95.0781 43.8125 93.849 43.8125 92.2969C43.8125 91.2344 44.099 90.3021 44.6719 89.5C45.2552 88.6979 46.1094 88.0677 47.2344 87.6094C48.3698 87.151 49.7656 86.9219 51.4219 86.9219H53.6562V85.6719C53.6562 84.8594 53.4167 84.2031 52.9375 83.7031C52.4688 83.1927 51.7604 82.9375 50.8125 82.9375C50.3229 82.9375 49.8854 83 49.5 83.125C49.1146 83.2396 48.7604 83.4062 48.4375 83.625L48.0781 85.8594H44.7969L44.7344 81.4688C45.6198 80.9688 46.5781 80.5625 47.6094 80.25C48.6406 79.9375 49.7917 79.7812 51.0625 79.7812C53.2708 79.7812 55.0156 80.2969 56.2969 81.3281C57.5781 82.349 58.2188 83.8125 58.2188 85.7188V92.6875C58.2188 92.9167 58.2188 93.1458 58.2188 93.375C58.2292 93.5938 58.25 93.8073 58.2812 94.0156L60.0469 94.2656V97H54.3906C54.276 96.7083 54.1615 96.3958 54.0469 96.0625C53.9323 95.7292 53.849 95.3958 53.7969 95.0625C53.2552 95.75 52.6146 96.3021 51.875 96.7188C51.1458 97.125 50.2865 97.3281 49.2969 97.3281ZM50.5156 93.9531C51.151 93.9531 51.7552 93.8125 52.3281 93.5312C52.901 93.2396 53.3438 92.8594 53.6562 92.3906V89.7188H51.4062C50.4062 89.7188 49.6458 89.9479 49.125 90.4062C48.6146 90.8646 48.3594 91.4167 48.3594 92.0625C48.3594 92.6667 48.5469 93.1354 48.9219 93.4688C49.3073 93.7917 49.8385 93.9531 50.5156 93.9531Z" fill="white"/>
<rect x="2" y="2" width="79" height="124" rx="39.5" stroke="white" stroke-width="4"/>
</svg>
